<mxfile host="app.diagrams.net" modified="2020-03-18T08:37:02.626Z" agent="Mozilla/5.0 (Macintosh; Intel Mac OS X 10_14_6) AppleWebKit/537.36 (KHTML, like Gecko) Chrome/80.0.3987.132 Safari/537.36" etag="W71kHKoFH9V8JYGqTLXA" version="12.8.5" type="github">
  <diagram id="EqoFCm8-C9Oadi-K3e8N" name="Page-1">
    <mxGraphModel dx="1679" dy="987" grid="1" gridSize="10" guides="1" tooltips="1" connect="1" arrows="1" fold="1" page="1" pageScale="1" pageWidth="827" pageHeight="1169" math="0" shadow="0">
      <root>
        <mxCell id="0" />
        <mxCell id="1" parent="0" />
        <mxCell id="9R-WJBk1CTyCUYP_G9Th-12" style="edgeStyle=orthogonalEdgeStyle;rounded=0;orthogonalLoop=1;jettySize=auto;html=1;exitX=0.25;exitY=1;exitDx=0;exitDy=0;" edge="1" parent="1" source="9R-WJBk1CTyCUYP_G9Th-1" target="9R-WJBk1CTyCUYP_G9Th-11">
          <mxGeometry relative="1" as="geometry" />
        </mxCell>
        <mxCell id="9R-WJBk1CTyCUYP_G9Th-1" value="RmcPlatformServiceImpl#httpListener" style="text;html=1;" vertex="1" parent="1">
          <mxGeometry x="30" y="220" width="520" height="30" as="geometry" />
        </mxCell>
        <mxCell id="9R-WJBk1CTyCUYP_G9Th-14" style="edgeStyle=orthogonalEdgeStyle;rounded=0;orthogonalLoop=1;jettySize=auto;html=1;exitX=0.5;exitY=1;exitDx=0;exitDy=0;entryX=0.5;entryY=0;entryDx=0;entryDy=0;" edge="1" parent="1" source="9R-WJBk1CTyCUYP_G9Th-3" target="9R-WJBk1CTyCUYP_G9Th-11">
          <mxGeometry relative="1" as="geometry" />
        </mxCell>
        <mxCell id="9R-WJBk1CTyCUYP_G9Th-3" value="OdpsDataImportServiceImpl#createImportTask" style="text;html=1;" vertex="1" parent="1">
          <mxGeometry x="310" y="220" width="270" height="30" as="geometry" />
        </mxCell>
        <mxCell id="9R-WJBk1CTyCUYP_G9Th-4" value="ZdalProxyDataImportServiceImpl#createImportTask" style="text;html=1;" vertex="1" parent="1">
          <mxGeometry x="610" y="220" width="350" height="30" as="geometry" />
        </mxCell>
        <mxCell id="9R-WJBk1CTyCUYP_G9Th-5" value="ZdalProxyDataImportServiceImpl#createImportTaskRelation" style="text;html=1;" vertex="1" parent="1">
          <mxGeometry x="610" y="180" width="1060" height="30" as="geometry" />
        </mxCell>
        <mxCell id="9R-WJBk1CTyCUYP_G9Th-13" style="edgeStyle=orthogonalEdgeStyle;rounded=0;orthogonalLoop=1;jettySize=auto;html=1;exitX=0.25;exitY=1;exitDx=0;exitDy=0;" edge="1" parent="1" source="9R-WJBk1CTyCUYP_G9Th-6">
          <mxGeometry relative="1" as="geometry">
            <mxPoint x="480" y="360" as="targetPoint" />
          </mxGeometry>
        </mxCell>
        <mxCell id="9R-WJBk1CTyCUYP_G9Th-6" value="ZdalProxyDataImportServiceImpl#createImportTaskCondition" style="text;html=1;" vertex="1" parent="1">
          <mxGeometry x="610" y="260" width="1050" height="30" as="geometry" />
        </mxCell>
        <mxCell id="9R-WJBk1CTyCUYP_G9Th-16" style="edgeStyle=orthogonalEdgeStyle;rounded=0;orthogonalLoop=1;jettySize=auto;html=1;exitX=0.5;exitY=1;exitDx=0;exitDy=0;entryX=0.5;entryY=0;entryDx=0;entryDy=0;" edge="1" parent="1" source="9R-WJBk1CTyCUYP_G9Th-7" target="9R-WJBk1CTyCUYP_G9Th-10">
          <mxGeometry relative="1" as="geometry" />
        </mxCell>
        <mxCell id="9R-WJBk1CTyCUYP_G9Th-7" value="com.alipay.riskmodelcenter.core.obtain.alipay.writer.DataRecordWriterWrapper#handle" style="text;html=1;" vertex="1" parent="1">
          <mxGeometry x="230" y="430" width="490" height="30" as="geometry" />
        </mxCell>
        <mxCell id="9R-WJBk1CTyCUYP_G9Th-8" value="com.alipay.riskmodelcenter.core.assemble.meta.DataRecordWriter#writeEntity" style="text;html=1;" vertex="1" parent="1">
          <mxGeometry x="20" y="585" width="440" height="30" as="geometry" />
        </mxCell>
        <mxCell id="9R-WJBk1CTyCUYP_G9Th-9" value="com.alipay.riskmodelcenter.core.assemble.meta.DataRecordWriter#writeRelation" style="text;html=1;" vertex="1" parent="1">
          <mxGeometry x="550" y="585" width="460" height="30" as="geometry" />
        </mxCell>
        <mxCell id="9R-WJBk1CTyCUYP_G9Th-17" style="edgeStyle=orthogonalEdgeStyle;rounded=0;orthogonalLoop=1;jettySize=auto;html=1;exitX=0.5;exitY=1;exitDx=0;exitDy=0;entryX=0.5;entryY=0;entryDx=0;entryDy=0;" edge="1" parent="1" source="9R-WJBk1CTyCUYP_G9Th-10" target="9R-WJBk1CTyCUYP_G9Th-8">
          <mxGeometry relative="1" as="geometry" />
        </mxCell>
        <mxCell id="9R-WJBk1CTyCUYP_G9Th-18" style="edgeStyle=orthogonalEdgeStyle;rounded=0;orthogonalLoop=1;jettySize=auto;html=1;exitX=0.5;exitY=1;exitDx=0;exitDy=0;entryX=0.5;entryY=0;entryDx=0;entryDy=0;" edge="1" parent="1" source="9R-WJBk1CTyCUYP_G9Th-10" target="9R-WJBk1CTyCUYP_G9Th-9">
          <mxGeometry relative="1" as="geometry" />
        </mxCell>
        <mxCell id="9R-WJBk1CTyCUYP_G9Th-10" value="com.alipay.riskmodelcenter.core.model.metadata.RiskEntityModelConverter#parseRiskEntityModel" style="text;html=1;" vertex="1" parent="1">
          <mxGeometry x="210" y="510" width="550" height="30" as="geometry" />
        </mxCell>
        <mxCell id="9R-WJBk1CTyCUYP_G9Th-15" style="edgeStyle=orthogonalEdgeStyle;rounded=0;orthogonalLoop=1;jettySize=auto;html=1;exitX=0.5;exitY=1;exitDx=0;exitDy=0;entryX=0.5;entryY=0;entryDx=0;entryDy=0;" edge="1" parent="1" source="9R-WJBk1CTyCUYP_G9Th-11" target="9R-WJBk1CTyCUYP_G9Th-7">
          <mxGeometry relative="1" as="geometry" />
        </mxCell>
        <mxCell id="9R-WJBk1CTyCUYP_G9Th-11" value="com.alipay.riskmodelcenter.traas.model.riskmodel.DataModelUtil#getIntegrationModelByDataType" style="text;html=1;" vertex="1" parent="1">
          <mxGeometry x="210" y="360" width="550" height="30" as="geometry" />
        </mxCell>
        <mxCell id="9R-WJBk1CTyCUYP_G9Th-19" value="将guid转换为实体配置model或关系配置model，定义一组新的&lt;span style=&quot;text-align: left&quot;&gt;IntegrationModel&lt;/span&gt;" style="text;html=1;align=center;verticalAlign=middle;resizable=0;points=[];autosize=1;" vertex="1" parent="1">
          <mxGeometry x="755" y="365" width="430" height="20" as="geometry" />
        </mxCell>
        <mxCell id="9R-WJBk1CTyCUYP_G9Th-20" value="进行参数校验，公共日志输出" style="text;html=1;align=center;verticalAlign=middle;resizable=0;points=[];autosize=1;" vertex="1" parent="1">
          <mxGeometry x="810" y="435" width="170" height="20" as="geometry" />
        </mxCell>
        <mxCell id="9R-WJBk1CTyCUYP_G9Th-21" value="解析数据，将记录转换为model" style="text;html=1;align=center;verticalAlign=middle;resizable=0;points=[];autosize=1;" vertex="1" parent="1">
          <mxGeometry x="800" y="520" width="180" height="20" as="geometry" />
        </mxCell>
        <mxCell id="9R-WJBk1CTyCUYP_G9Th-22" value="进行实际的写入" style="text;html=1;align=center;verticalAlign=middle;resizable=0;points=[];autosize=1;" vertex="1" parent="1">
          <mxGeometry x="1110" y="585" width="100" height="20" as="geometry" />
        </mxCell>
      </root>
    </mxGraphModel>
  </diagram>
</mxfile>
